<svg width="24" height="25" viewBox="0 0 24 25" fill="none" xmlns="http://www.w3.org/2000/svg">
<path d="M5 10.5371H7C9 10.5371 10 9.53711 10 7.53711V5.53711C10 3.53711 9 2.53711 7 2.53711H5C3 2.53711 2 3.53711 2 5.53711V7.53711C2 9.53711 3 10.5371 5 10.5371Z" stroke="#667797" stroke-width="1.5" stroke-miterlimit="10" stroke-linecap="round" stroke-linejoin="round"/>
<path d="M17 10.5371H19C21 10.5371 22 9.53711 22 7.53711V5.53711C22 3.53711 21 2.53711 19 2.53711H17C15 2.53711 14 3.53711 14 5.53711V7.53711C14 9.53711 15 10.5371 17 10.5371Z" stroke="#667797" stroke-width="1.5" stroke-miterlimit="10" stroke-linecap="round" stroke-linejoin="round"/>
<path d="M17 22.5371H19C21 22.5371 22 21.5371 22 19.5371V17.5371C22 15.5371 21 14.5371 19 14.5371H17C15 14.5371 14 15.5371 14 17.5371V19.5371C14 21.5371 15 22.5371 17 22.5371Z" stroke="#667797" stroke-width="1.5" stroke-miterlimit="10" stroke-linecap="round" stroke-linejoin="round"/>
<path d="M5 22.5371H7C9 22.5371 10 21.5371 10 19.5371V17.5371C10 15.5371 9 14.5371 7 14.5371H5C3 14.5371 2 15.5371 2 17.5371V19.5371C2 21.5371 3 22.5371 5 22.5371Z" stroke="#667797" stroke-width="1.5" stroke-miterlimit="10" stroke-linecap="round" stroke-linejoin="round"/>
</svg>
