<svg width="44" height="44" viewBox="0 0 44 44" fill="none" xmlns="http://www.w3.org/2000/svg">
<g clip-path="url(#clip0_34_3481)">
<mask id="mask0_34_3481" style="mask-type:luminance" maskUnits="userSpaceOnUse" x="0" y="0" width="44" height="44">
<path d="M0 0H44V44H0V0Z" fill="white"/>
</mask>
<g mask="url(#mask0_34_3481)">
<path d="M39.7216 21.2312C39.7216 21.2312 41.0323 19.3206 39.1206 18.0111C37.2112 16.7015 35.9017 18.612 35.9017 18.612L29.8216 27.4792C29.6131 27.1295 29.3827 26.7844 29.128 26.444L37.5667 14.1367C37.5667 14.1367 38.8763 12.2274 36.9658 10.9178C35.0564 9.60706 33.7468 11.5176 33.7468 11.5176L25.8083 23.0931C25.513 22.8511 25.212 22.6102 24.8993 22.3729L34.1011 8.95285C34.1011 8.95285 35.4107 7.04349 33.5013 5.73391C31.592 4.42317 30.2824 6.33369 30.2824 6.33369L21.0795 19.7525C20.7413 19.5441 20.4067 19.3646 20.0721 19.1759L28.6718 6.63359C28.6718 6.63359 29.9813 4.72422 28.0708 3.41464C26.1615 2.1039 24.8519 4.01443 24.8519 4.01443L15.7578 17.2758L15.0295 18.3387L14.3752 19.294C20.1045 23.2227 20.6499 30.6171 17.3765 35.3911C16.7211 36.3463 15.767 35.6921 15.767 35.6921C19.6958 29.9617 18.495 23.5226 12.7646 19.5939L14.4575 11.139C14.4575 11.139 15.0885 8.91001 12.8607 8.27896C10.6329 7.64791 10.0019 9.87569 10.0019 9.87569L8.05082 15.6698C7.27735 17.9671 6.45408 20.2562 5.3645 22.4203C2.28798 28.534 4.12556 36.1333 9.92777 40.1118C16.2557 44.4504 24.9051 42.8386 29.2449 36.5107C29.4742 36.175 29.6664 35.8473 29.8493 35.5196L29.9003 35.5555L39.7216 21.2312Z" fill="#FFC83D"/>
<path d="M3.52233 9.26315H1.20654C1.20899 7.12715 2.0586 5.07934 3.56898 3.56896C5.07936 2.05858 7.12718 1.20897 9.26318 1.20652V3.52231C7.74117 3.52415 6.28204 4.12958 5.20582 5.2058C4.1296 6.28201 3.52417 7.74115 3.52233 9.26315Z" fill="#00366C"/>
<path d="M5.78954 15.0526H3.47375C3.47375 8.66798 8.66807 3.47367 15.0527 3.47367V5.78945C9.94523 5.78945 5.78954 9.94514 5.78954 15.0526Z" fill="#00366C"/>
<path d="M34.7368 42.8421V40.5263C38.2105 40.5263 40.5263 38.2105 40.5263 34.7368H42.8421C42.8421 39.3684 39.3684 42.8421 34.7368 42.8421Z" fill="#00366C"/>
<path d="M28.9474 40.575V38.2592C33.579 38.2592 38.2592 33.579 38.2592 28.9474H40.575C40.575 35.8947 35.8948 40.575 28.9474 40.575Z" fill="#00366C"/>
</g>
</g>
<defs>
<clipPath id="clip0_34_3481">
<rect width="44" height="44" fill="white"/>
</clipPath>
</defs>
</svg>
