<svg width="24" height="25" viewBox="0 0 24 25" fill="none" xmlns="http://www.w3.org/2000/svg">
<path d="M8 12.7373H15" stroke="#667797" stroke-width="1.5" stroke-miterlimit="10" stroke-linecap="round" stroke-linejoin="round"/>
<path d="M8 16.7373H12.38" stroke="#667797" stroke-width="1.5" stroke-miterlimit="10" stroke-linecap="round" stroke-linejoin="round"/>
<path d="M10 6.53711H14C16 6.53711 16 5.53711 16 4.53711C16 2.53711 15 2.53711 14 2.53711H10C9 2.53711 8 2.53711 8 4.53711C8 6.53711 9 6.53711 10 6.53711Z" stroke="#667797" stroke-width="1.5" stroke-miterlimit="10" stroke-linecap="round" stroke-linejoin="round"/>
<path d="M16 4.55664C19.33 4.73664 21 5.96664 21 10.5366V16.5366C21 20.5366 20 22.5366 15 22.5366H9C4 22.5366 3 20.5366 3 16.5366V10.5366C3 5.97664 4.67 4.73664 8 4.55664" stroke="#667797" stroke-width="1.5" stroke-miterlimit="10" stroke-linecap="round" stroke-linejoin="round"/>
</svg>
